<svg width="385" height="120" viewBox="0 0 385 120" fill="none" xmlns="http://www.w3.org/2000/svg">
<path d="M30.2812 42.4062C30.0312 43.3125 29.9062 45.5938 29.9062 49.25V53.375H18.6094V86H7.125V53.375H0.234375C0.265625 51.3125 0.296875 49.4844 0.328125 47.8906L0.421875 42.875V42.4062H7.125V39.5C7.125 32 8.875 25.9687 12.375 21.4062C16.0312 16.6875 21.0625 14.3281 27.4688 14.3281C30.1875 14.3281 31.9844 14.5156 32.8594 14.8906L32.9062 26.6562L32.8125 26.8906C31.625 25.7031 30.1094 25.1094 28.2656 25.1094C26.4531 25.1094 24.9844 25.4219 23.8594 26.0469C22.7344 26.6406 21.7812 27.5 21 28.625C19.4062 30.875 18.6094 33.9531 18.6094 37.8594V42.4062H30.2812ZM49.8281 80.75C49.8281 83.4375 49.8906 85.1875 50.0156 86H38.1094V16.1562H49.8281V80.75ZM95.3906 83.0938C90.9531 85.5 86.9375 86.7031 83.3438 86.7031C79.75 86.7031 76.6719 86.375 74.1094 85.7188C71.5469 85.0312 69.375 84.0312 67.5938 82.7188C63.9688 80.0625 62.1562 76.2188 62.1562 71.1875C62.1562 66.6875 64.375 62.9375 68.8125 59.9375C73.625 56.6875 80.1562 55.0625 88.4062 55.0625L90.2812 55.1094C90.6562 55.1406 91.0781 55.1719 91.5469 55.2031C92.0156 55.2031 92.4375 55.2344 92.8125 55.2969C92.5625 50.2969 90.4062 47.375 86.3438 46.5312C85 46.25 83.5625 46.1094 82.0312 46.1094C80.5312 46.1094 79.0469 46.25 77.5781 46.5312C76.1406 46.7812 74.7344 47.125 73.3594 47.5625C70.3281 48.5312 68.1562 49.6406 66.8438 50.8906L66.7031 50.7969L65.2969 40.4375C70.8281 37.5312 76.875 36.0781 83.4375 36.0781C93.625 36.0781 100.141 39.75 102.984 47.0938C103.891 49.4375 104.344 52.0781 104.344 55.0156V71.9844C104.344 75.6094 105.625 78.0781 108.188 79.3906L99.7031 87.1719C97.9219 86.2344 96.4844 84.875 95.3906 83.0938ZM92.8594 63.7344C92.0156 63.5781 91.1406 63.5 90.2344 63.5H88.3594C81.4531 63.5 77.0625 65.0312 75.1875 68.0938C74.625 69 74.3438 69.9531 74.3438 70.9531C74.3438 71.9531 74.5156 72.8438 74.8594 73.625C75.2344 74.375 75.8438 75 76.6875 75.5C78.3125 76.4375 80.7188 76.9062 83.9062 76.9062C87.125 76.9062 90.125 76.1406 92.9062 74.6094C92.875 74.2656 92.8594 73.9062 92.8594 73.5312V63.7344ZM131.672 72.4531C131.672 79.4844 131.797 84 132.047 86H119.812V37.0156H131.672V41.2344C135.953 37.7969 140.344 36.0781 144.844 36.0781C150.156 36.0781 154.016 38.375 156.422 42.9688C158.828 40.5 160.828 38.875 162.422 38.0938C165.078 36.75 167.734 36.0781 170.391 36.0781C173.078 36.0781 175.359 36.5312 177.234 37.4375C179.109 38.3438 180.656 39.625 181.875 41.2812C184.344 44.625 185.578 49.2188 185.578 55.0625V73.7188C185.578 79 185.656 82.1719 185.812 83.2344C185.969 84.2969 186.172 84.9844 186.422 85.2969C186.703 85.6094 186.938 85.8906 187.125 86.1406L187.031 86.3281C184.531 86.1094 182.688 86 181.5 86H177.984C176.828 86 175.406 86.0469 173.719 86.1406V60.7812C173.719 53.4688 172.594 49.125 170.344 47.75C169.594 47.3125 168.703 47.0938 167.672 47.0938C166.672 47.0938 165.781 47.2188 165 47.4688C164.219 47.6875 163.484 48.0625 162.797 48.5938C161.641 49.4375 160.328 51.0938 158.859 53.5625C158.891 53.8125 158.906 54.0625 158.906 54.3125C158.906 54.5625 158.906 58.6875 158.906 66.6875C158.906 74.6875 159.094 81.125 159.469 86C156.812 86 154.547 86 152.672 86C150.828 86 149.062 86.0469 147.375 86.1406V60.7344C147.375 55.6406 147.062 52.3281 146.438 50.7969C145.844 49.2656 145.203 48.2656 144.516 47.7969C143.828 47.3281 142.984 47.0938 141.984 47.0938C137.859 47.0938 134.422 49.0781 131.672 53.0469V72.4531ZM197.672 23.0469C200.172 19.1406 202.781 15.7031 205.5 12.7344L215.578 20.6562C214.234 22.3125 212.984 23.9375 211.828 25.5312C211.828 25.5312 210.625 27.2344 208.219 30.6406L197.672 23.0469ZM210 80.75C210 83.4375 210.062 85.1875 210.188 86H198.281V37.0156H210V80.75ZM235.594 80C235.594 82.75 235.719 84.75 235.969 86H224.203V37.0156H235.594V41.1875C239.719 37.7812 244.125 36.0781 248.812 36.0781C253.938 36.0781 258.031 37.8281 261.094 41.3281C264.156 44.7969 265.688 49.375 265.688 55.0625V73.7188C265.688 79 265.766 82.1719 265.922 83.2344C266.078 84.2969 266.281 84.9844 266.531 85.2969C266.812 85.6094 267.047 85.8906 267.234 86.1406L267.141 86.3281C264.609 86.1094 262.766 86 261.609 86H258.328C257.328 86 255.984 86.0469 254.297 86.1406V60.5938C254.297 51.4375 251.516 46.8594 245.953 46.8594C241.828 46.8594 238.375 48.9844 235.594 53.2344V80ZM292.312 72.9688C291.156 74.5 290.578 75.7188 290.578 76.625C290.578 77.5 290.719 78.1875 291 78.6875C291.281 79.1562 291.891 79.6094 292.828 80.0469C294.891 81.0156 298.281 81.875 303 82.625C307.719 83.3438 311.406 84.25 314.062 85.3438C316.75 86.4375 318.922 87.7812 320.578 89.375C323.672 92.4062 325.219 96.7031 325.219 102.266C325.219 107.828 323.266 112.094 319.359 115.062C315.453 118.062 309.656 119.562 301.969 119.562C294.219 119.562 287.969 117.875 283.219 114.5C278.469 111.125 276.031 106.641 275.906 101.047C275.719 94.5469 278.266 89.8438 283.547 86.9375C282.109 85.75 281.141 84.3594 280.641 82.7656C280.172 81.1406 279.938 79.2969 279.938 77.2344C279.938 73.7656 281.453 70.8281 284.484 68.4219C280.953 65.0781 279.188 60.9219 279.188 55.9531C279.188 50.3906 281.188 45.7344 285.188 41.9844C289.406 38.0469 294.875 36.0781 301.594 36.0781C305.125 36.0781 308.438 36.7344 311.531 38.0469C315.594 36.3281 318.578 34.8281 320.484 33.5469C322.391 32.2344 323.609 31.2813 324.141 30.6875L324.422 30.7344C324.703 31.4844 325.031 32.5469 325.406 33.9219L326.25 37.2969C327 40.0781 327.453 41.9844 327.609 43.0156C326.234 44.5156 323.812 45.5781 320.344 46.2031C321.688 48.7969 322.359 51.5469 322.359 54.4531C322.359 57.3594 321.859 60 320.859 62.375C319.859 64.7188 318.438 66.7812 316.594 68.5625C312.5 72.4062 307.281 74.3281 300.938 74.3281C297.844 74.3281 294.969 73.875 292.312 72.9688ZM291.094 51.875C290.656 53 290.438 54.1406 290.438 55.2969C290.438 56.4531 290.672 57.5625 291.141 58.625C291.641 59.6875 292.359 60.6406 293.297 61.4844C295.391 63.3594 298.125 64.2969 301.5 64.2969C304.062 64.2969 306.281 63.4375 308.156 61.7188C310.125 59.8438 311.109 57.5938 311.109 54.9688C311.109 52.3125 310.219 50.1719 308.438 48.5469C306.656 46.9219 304.203 46.1094 301.078 46.1094C295.922 46.1094 292.594 48.0312 291.094 51.875ZM302.578 109.625C310.266 109.625 314.109 106.938 314.109 101.562C314.109 99 312.859 96.9375 310.359 95.375C307.547 93.5938 302.719 92.2031 295.875 91.2031L293.438 90.7812C291.375 91.875 289.859 93.2812 288.891 95C287.922 96.7188 287.438 98.3438 287.438 99.875C287.469 101.438 287.844 102.781 288.562 103.906C289.281 105.031 290.281 106.016 291.562 106.859C294.406 108.703 298.078 109.625 302.578 109.625ZM331.828 61.7656C331.828 58.3281 332.406 55.0469 333.562 51.9219C334.75 48.7656 336.438 46.0156 338.625 43.6719C343.406 38.6094 349.609 36.0781 357.234 36.0781C364.828 36.0781 370.859 38.4688 375.328 43.25C379.609 47.8125 381.75 53.7344 381.75 61.0156C381.75 68.2969 379.547 74.3281 375.141 79.1094C370.484 84.1719 364.312 86.7031 356.625 86.7031C348.688 86.7031 342.469 84.2188 337.969 79.25C333.875 74.7188 331.828 68.8906 331.828 61.7656ZM343.219 61.4844C343.219 63.4531 343.547 65.3594 344.203 67.2031C344.859 69.0469 345.797 70.625 347.016 71.9375C349.609 74.7812 353.016 76.2031 357.234 76.2031C361.141 76.2031 364.219 74.8125 366.469 72.0312C368.656 69.3438 369.75 65.8438 369.75 61.5312C369.75 57.1562 368.625 53.625 366.375 50.9375C363.969 48.0625 360.672 46.625 356.484 46.625C352.234 46.625 348.906 48.1562 346.5 51.2188C344.312 54.0312 343.219 57.4531 343.219 61.4844Z" fill="#FF2063"/>
<path d="M87.6602 94.8672H92.3594C94.4766 94.8672 96.0312 95.2266 97.0234 95.9453C98.0156 96.6641 98.5117 97.75 98.5117 99.2031C98.5117 100.195 98.207 101.023 97.5977 101.688C96.9961 102.344 96.1133 102.766 94.9492 102.953V103.023C96.3164 103.227 97.3203 103.66 97.9609 104.324C98.6094 104.98 98.9336 105.898 98.9336 107.078C98.9336 108.656 98.4102 109.871 97.3633 110.723C96.3164 111.574 94.832 112 92.9102 112H87.6602V94.8672ZM88.8555 102.496H92.6289C94.2383 102.496 95.4062 102.23 96.1328 101.699C96.8672 101.16 97.2344 100.32 97.2344 99.1797C97.2344 98.0391 96.8203 97.2109 95.9922 96.6953C95.1719 96.1797 93.9453 95.9219 92.3125 95.9219H88.8555V102.496ZM88.8555 103.551V110.945H92.8867C96.0586 110.945 97.6445 109.656 97.6445 107.078C97.6445 104.727 95.9727 103.551 92.6289 103.551H88.8555ZM100.281 99.2617H101.477L104.172 106.41C104.992 108.605 105.512 110.086 105.73 110.852H105.801C106.129 109.844 106.664 108.34 107.406 106.34L110.102 99.2617H111.297L105.59 114.062C105.129 115.266 104.742 116.078 104.43 116.5C104.117 116.922 103.75 117.238 103.328 117.449C102.914 117.66 102.41 117.766 101.816 117.766C101.371 117.766 100.875 117.684 100.328 117.52V116.512C100.781 116.637 101.27 116.699 101.793 116.699C102.191 116.699 102.543 116.605 102.848 116.418C103.152 116.23 103.426 115.938 103.668 115.539C103.918 115.148 104.203 114.523 104.523 113.664C104.852 112.812 105.062 112.258 105.156 112L100.281 99.2617ZM124.422 112H123.215V95.9922H117.648V94.8672H129.988V95.9922H124.422V112ZM142.785 105.613C142.785 107.691 142.281 109.316 141.273 110.488C140.266 111.652 138.875 112.234 137.102 112.234C135.984 112.234 135 111.965 134.148 111.426C133.297 110.887 132.645 110.113 132.191 109.105C131.738 108.098 131.512 106.934 131.512 105.613C131.512 103.535 132.016 101.918 133.023 100.762C134.031 99.5977 135.414 99.0156 137.172 99.0156C138.922 99.0156 140.293 99.6055 141.285 100.785C142.285 101.957 142.785 103.566 142.785 105.613ZM132.73 105.613C132.73 107.363 133.113 108.73 133.879 109.715C134.652 110.691 135.742 111.18 137.148 111.18C138.555 111.18 139.641 110.691 140.406 109.715C141.18 108.73 141.566 107.363 141.566 105.613C141.566 103.855 141.176 102.492 140.395 101.523C139.621 100.555 138.531 100.07 137.125 100.07C135.719 100.07 134.633 100.555 133.867 101.523C133.109 102.484 132.73 103.848 132.73 105.613ZM155.195 112V103.738C155.195 102.457 154.926 101.527 154.387 100.949C153.848 100.363 153.012 100.07 151.879 100.07C150.355 100.07 149.238 100.457 148.527 101.23C147.824 101.996 147.473 103.242 147.473 104.969V112H146.312V99.2617H147.297L147.52 101.008H147.59C148.418 99.6797 149.891 99.0156 152.008 99.0156C154.898 99.0156 156.344 100.566 156.344 103.668V112H155.195ZM169.352 112V103.738C169.352 102.457 169.082 101.527 168.543 100.949C168.004 100.363 167.168 100.07 166.035 100.07C164.512 100.07 163.395 100.457 162.684 101.23C161.98 101.996 161.629 103.242 161.629 104.969V112H160.469V93.7656H161.629V99.5664L161.57 101.195H161.652C162.129 100.43 162.73 99.875 163.457 99.5312C164.184 99.1875 165.086 99.0156 166.164 99.0156C169.055 99.0156 170.5 100.566 170.5 103.668V112H169.352ZM175.785 112H174.625V99.2617H175.785V112ZM174.461 95.7227C174.461 94.9727 174.707 94.5977 175.199 94.5977C175.441 94.5977 175.629 94.6953 175.762 94.8906C175.902 95.0859 175.973 95.3633 175.973 95.7227C175.973 96.0742 175.902 96.3516 175.762 96.5547C175.629 96.7578 175.441 96.8594 175.199 96.8594C174.707 96.8594 174.461 96.4805 174.461 95.7227ZM181.223 112H180.062V93.7656H181.223V112ZM204.438 112H203.23V103.574H193.223V112H192.027V94.8672H193.223V102.473H203.23V94.8672H204.438V112ZM219.543 105.613C219.543 107.691 219.039 109.316 218.031 110.488C217.023 111.652 215.633 112.234 213.859 112.234C212.742 112.234 211.758 111.965 210.906 111.426C210.055 110.887 209.402 110.113 208.949 109.105C208.496 108.098 208.27 106.934 208.27 105.613C208.27 103.535 208.773 101.918 209.781 100.762C210.789 99.5977 212.172 99.0156 213.93 99.0156C215.68 99.0156 217.051 99.6055 218.043 100.785C219.043 101.957 219.543 103.566 219.543 105.613ZM209.488 105.613C209.488 107.363 209.871 108.73 210.637 109.715C211.41 110.691 212.5 111.18 213.906 111.18C215.312 111.18 216.398 110.691 217.164 109.715C217.938 108.73 218.324 107.363 218.324 105.613C218.324 103.855 217.934 102.492 217.152 101.523C216.379 100.555 215.289 100.07 213.883 100.07C212.477 100.07 211.391 100.555 210.625 101.523C209.867 102.484 209.488 103.848 209.488 105.613ZM226.434 111.203C227.168 111.203 227.809 111.141 228.355 111.016V111.953C227.793 112.141 227.145 112.234 226.41 112.234C225.285 112.234 224.453 111.934 223.914 111.332C223.383 110.73 223.117 109.785 223.117 108.496V100.27H221.23V99.5898L223.117 99.0625L223.703 96.1797H224.301V99.2617H228.039V100.27H224.301V108.332C224.301 109.309 224.473 110.031 224.816 110.5C225.16 110.969 225.699 111.203 226.434 111.203ZM236.254 112.234C234.402 112.234 232.957 111.664 231.918 110.523C230.887 109.383 230.371 107.785 230.371 105.73C230.371 103.699 230.871 102.074 231.871 100.855C232.871 99.6289 234.219 99.0156 235.914 99.0156C237.414 99.0156 238.598 99.5391 239.465 100.586C240.332 101.633 240.766 103.055 240.766 104.852V105.789H231.59C231.605 107.539 232.012 108.875 232.809 109.797C233.613 110.719 234.762 111.18 236.254 111.18C236.98 111.18 237.617 111.129 238.164 111.027C238.719 110.926 239.418 110.707 240.262 110.371V111.426C239.543 111.738 238.879 111.949 238.27 112.059C237.66 112.176 236.988 112.234 236.254 112.234ZM235.914 100.047C234.688 100.047 233.703 100.453 232.961 101.266C232.219 102.07 231.785 103.234 231.66 104.758H239.535C239.535 103.281 239.215 102.129 238.574 101.301C237.934 100.465 237.047 100.047 235.914 100.047ZM245.441 112H244.281V93.7656H245.441V112ZM257.617 108.684C257.617 109.824 257.184 110.703 256.316 111.32C255.449 111.93 254.219 112.234 252.625 112.234C250.922 112.234 249.57 111.973 248.57 111.449V110.195C249.852 110.836 251.203 111.156 252.625 111.156C253.883 111.156 254.836 110.949 255.484 110.535C256.141 110.113 256.469 109.555 256.469 108.859C256.469 108.219 256.207 107.68 255.684 107.242C255.168 106.805 254.316 106.375 253.129 105.953C251.855 105.492 250.961 105.098 250.445 104.77C249.93 104.434 249.539 104.059 249.273 103.645C249.016 103.223 248.887 102.711 248.887 102.109C248.887 101.156 249.285 100.402 250.082 99.8477C250.887 99.293 252.008 99.0156 253.445 99.0156C254.82 99.0156 256.125 99.2734 257.359 99.7891L256.926 100.844C255.676 100.328 254.516 100.07 253.445 100.07C252.406 100.07 251.582 100.242 250.973 100.586C250.363 100.93 250.059 101.406 250.059 102.016C250.059 102.68 250.293 103.211 250.762 103.609C251.238 104.008 252.164 104.453 253.539 104.945C254.688 105.359 255.523 105.734 256.047 106.07C256.57 106.398 256.961 106.773 257.219 107.195C257.484 107.617 257.617 108.113 257.617 108.684Z" fill="black"/>
</svg>
